<?xml version="1.0" encoding="UTF-8" standalone="no"?>
<svg
   xmlns:dc="http://purl.org/dc/elements/1.1/"
   xmlns:cc="http://creativecommons.org/ns#"
   xmlns:rdf="http://www.w3.org/1999/02/22-rdf-syntax-ns#"
   xmlns:svg="http://www.w3.org/2000/svg"
   xmlns="http://www.w3.org/2000/svg"
   xmlns:xlink="http://www.w3.org/1999/xlink"
   xmlns:sodipodi="http://sodipodi.sourceforge.net/DTD/sodipodi-0.dtd"
   xmlns:inkscape="http://www.inkscape.org/namespaces/inkscape"
   class="icon"
   height="200"
   viewBox="0 0 400 400"
   version="1.1"
   id="svg4192"
   inkscape:version="0.91 r13725"
   sodipodi:docname="battery.svg"
   width="400">
  <sodipodi:namedview
     pagecolor="#ffffff"
     bordercolor="#666666"
     borderopacity="1"
     objecttolerance="10"
     gridtolerance="10"
     guidetolerance="10"
     inkscape:pageopacity="0"
     inkscape:pageshadow="2"
     inkscape:window-width="1920"
     inkscape:window-height="1054"
     id="namedview4198"
     showgrid="false"
     inkscape:zoom="2"
     inkscape:cx="162.86499"
     inkscape:cy="93.976288"
     inkscape:window-x="0"
     inkscape:window-y="0"
     inkscape:window-maximized="1"
     inkscape:current-layer="svg4192"
     fit-margin-top="0"
     fit-margin-left="0"
     fit-margin-right="0"
     fit-margin-bottom="0"
     showborder="true"
     units="px"
     borderlayer="false"
     inkscape:showpageshadow="false" />
  <metadata
     id="metadata4202">
    <rdf:RDF>
      <cc:Work
         rdf:about="">
        <dc:format>image/svg+xml</dc:format>
        <dc:type
           rdf:resource="http://purl.org/dc/dcmitype/StillImage" />
        <dc:title></dc:title>
      </cc:Work>
    </rdf:RDF>
  </metadata>
  <defs
     id="defs4200">
    <linearGradient
       id="linearGradient4279"
       inkscape:collect="always">
      <stop
         id="stop4281"
         offset="0"
         style="stop-color:#aad400;stop-opacity:1" />
      <stop
         id="stop4283"
         offset="1"
         style="stop-color:#008000;stop-opacity:1" />
    </linearGradient>
    <linearGradient
       gradientTransform="matrix(1.1256259,0,0,1.2531843,-15.34144,-567.62326)"
       gradientUnits="userSpaceOnUse"
       y2="604.74878"
       x2="565.24158"
       y1="607.01428"
       x1="-340.95312"
       id="linearGradient4285"
       xlink:href="#linearGradient4279"
       inkscape:collect="always" />
  </defs>
  <g
     id="g3560">
    <path
       id="path4196-6"
       fill=""
       d="M531.977181635 94.8010831888C531.977181635 94.8010831888 531.977181635 305.203007509 531.977181635 305.203007509C531.977181635 305.203007509 561.352037242 305.203007509 561.352037242 305.203007509C582.993552757 305.203007509 599.999996193 286.802474321 599.999996193 265.201271348C599.999996193 265.201271348 599.999996193 134.798735561 599.999996193 134.798735561C599.999996193 113.198553535 582.995525548 94.7969993996 561.352037242 94.7969993996C561.352037242 94.7969993996 531.977181635 94.8010831888 531.977181635 94.8010831888" />
    <path
       id="path4194"
       fill=""
       d="M475.542767341 400.000006209C475.542767341 400.000006209 -153.624619329 400.000006209 -153.624619329 400.000006209C-179.130832099 400.000006209 -200.0 378.399824183 -200.0 352.000168899C-200.0 352.000168899 -200.0 47.9998380095 -200.0 47.9998380095C-200.0 21.6001827261 -179.130832099 7.00000033526e-07 -153.624619329 7.00000033526e-07C-153.624619329 7.00000033526e-07 475.542767341 7.00000033526e-07 475.542767341 7.00000033526e-07C501.048980112 7.00000033526e-07 521.918148013 21.6001827261 521.918148013 47.9998380095C521.918148013 47.9998380095 521.918148013 352.000168899 521.918148013 352.000168899C521.918148013 378.399824183 501.048980112 400.000006209 475.542767341 400.000006209C475.542767341 400.000006209 475.542767341 400.000006209 475.542767341 400.000006209M475.542767341 351.998127005C475.542767341 351.998127005 475.542767341 351.998127005 475.542767341 351.998127005C475.542767341 351.998127005 475.542767341 351.998127005 475.542767341 351.998127005M-153.629551306 47.994733273C-153.629551306 47.994733273 -153.629551306 351.995064163 -153.629551306 351.995064163C-153.629551306 351.995064163 475.537835364 351.995064163 475.537835364 351.995064163C475.537835364 351.995064163 475.537835364 47.994733273 475.537835364 47.994733273C475.537835364 47.994733273 -153.629551306 47.994733273 -153.629551306 47.994733273C-153.629551306 47.994733273 -153.629551306 47.994733273 -153.629551306 47.994733273" />
    <path
       style="opacity:0.95;fill:url(#linearGradient4285);fill-opacity:1"
       d="M-153.63941526 48.0164580106C-153.63941526 48.0164580106 -153.63941526 352.015483109 -153.63941526 352.015483109C-153.63941526 352.015483109 475.526728552 352.015483109 475.526728552 352.015483109C475.526728552 352.015483109 475.526728552 48.0164580106 475.526728552 48.0164580106C475.526728552 48.0164580106 -153.63941526 48.0164580106 -153.63941526 48.0164580106C-153.63941526 48.0164580106 -153.63941526 48.0164580106 -153.63941526 48.0164580106"
       id="rect4277" />
  </g>
</svg>
