<?xml version="1.0" encoding="UTF-8" standalone="no"?>
<!-- Generator: Adobe Illustrator 17.1.0, SVG Export Plug-In . SVG Version: 6.00 Build 0)  -->

<svg
   xmlns:dc="http://purl.org/dc/elements/1.1/"
   xmlns:cc="http://creativecommons.org/ns#"
   xmlns:rdf="http://www.w3.org/1999/02/22-rdf-syntax-ns#"
   xmlns:svg="http://www.w3.org/2000/svg"
   xmlns="http://www.w3.org/2000/svg"
   xmlns:sodipodi="http://sodipodi.sourceforge.net/DTD/sodipodi-0.dtd"
   xmlns:inkscape="http://www.inkscape.org/namespaces/inkscape"
   version="1.1"
   id="Capa_1"
   x="0px"
   y="0px"
   viewBox="0 0 200.00001 200.00001"
   xml:space="preserve"
   inkscape:version="0.91 r13725"
   sodipodi:docname="factory.svg"
   width="200"
   height="200"><sodipodi:namedview
     pagecolor="#ffffff"
     bordercolor="#666666"
     borderopacity="1"
     objecttolerance="10"
     gridtolerance="10"
     guidetolerance="10"
     inkscape:pageopacity="0"
     inkscape:pageshadow="2"
     inkscape:window-width="1748"
     inkscape:window-height="836"
     id="namedview4001"
     showgrid="false"
     fit-margin-top="0"
     fit-margin-left="0"
     fit-margin-right="0"
     fit-margin-bottom="0"
     inkscape:zoom="1.1606577"
     inkscape:cx="-5.6002731"
     inkscape:cy="101.66649"
     inkscape:window-x="0"
     inkscape:window-y="0"
     inkscape:window-maximized="0"
     inkscape:current-layer="Capa_1" /><metadata
     id="metadata4005"><rdf:RDF><cc:Work
         rdf:about=""><dc:format>image/svg+xml</dc:format><dc:type
           rdf:resource="http://purl.org/dc/dcmitype/StillImage" /><dc:title></dc:title></cc:Work></rdf:RDF></metadata><defs
     id="defs4003" /><path
     id="path3969"
     d="M200.0 103.65437C200.0 103.65437 200.0 194.49145 200.0 194.49145C200.0 197.53327 197.7977 200.0 195.08196 200.0C195.08196 200.0 4.9180408 200.0 4.9180408 200.0C2.2022987 200.0 0.0 197.53327 0.0 194.49145C0.0 194.49145 0.0 130.2177 0.0 130.2177C0.0 128.12886 1.054428 126.22069 2.7226274 125.28865C2.7226274 125.28865 50.263361 98.725317 50.263361 98.725317C51.787954 97.873697 53.597793 97.966247 55.045664 98.969897C56.494519 99.973557 57.376815 101.74621 57.376815 103.65437C57.376815 103.65437 57.376815 121.31368 57.376815 121.31368C57.376815 121.31368 86.488666 105.04804 86.488666 105.04804C86.488666 105.04804 86.488666 51.249339 86.488666 51.249339C86.488666 48.207518 88.690965 45.74079 91.406707 45.74079C91.406707 45.74079 100.33197 45.74079 100.33197 45.74079C103.04771 45.74079 105.25001 48.207518 105.25001 51.249339C105.25001 51.249339 105.25001 121.12859 105.25001 121.12859C105.25001 121.12859 137.72973 102.98123 137.72973 102.98123C137.72973 102.98123 139.74023 5.3818526 139.74023 5.3818526C139.80223 2.3896087 141.98482 0.0 144.65729 0.0C144.65729 0.0 166.09699 0.0 166.09699 0.0C168.76847 0.0 170.95208 2.3896087 171.01405 5.3818526C171.01405 5.3818526 173.16422 109.74573 173.16422 109.74573C173.16422 109.74573 192.88655 98.726427 192.88655 98.726427C194.41114 97.874797 196.21999 97.967347 197.66885 98.971007C199.1177 99.974657 200.0 101.74621 200.0 103.65437C200.0 103.65437 200.0 103.65437 200.0 103.65437M34.503007 155.41931C34.503007 155.41931 21.199707 155.41931 21.199707 155.41931C21.199707 155.41931 21.199707 176.35841 21.199707 176.35841C21.199707 176.35841 34.503007 176.35841 34.503007 176.35841C34.503007 176.35841 34.503007 155.41931 34.503007 155.41931C34.503007 155.41931 34.503007 155.41931 34.503007 155.41931M70.527657 155.41931C70.527657 155.41931 57.224356 155.41931 57.224356 155.41931C57.224356 155.41931 57.224356 176.35841 57.224356 176.35841C57.224356 176.35841 70.527657 176.35841 70.527657 176.35841C70.527657 176.35841 70.527657 155.41931 70.527657 155.41931C70.527657 155.41931 70.527657 155.41931 70.527657 155.41931M106.55329 155.41931C106.55329 155.41931 93.249989 155.41931 93.249989 155.41931C93.249989 155.41931 93.249989 176.35841 93.249989 176.35841C93.249989 176.35841 106.55329 176.35841 106.55329 176.35841C106.55329 176.35841 106.55329 155.41931 106.55329 155.41931C106.55329 155.41931 106.55329 155.41931 106.55329 155.41931M142.57892 155.41931C142.57892 155.41931 129.27562 155.41931 129.27562 155.41931C129.27562 155.41931 129.27562 176.35841 129.27562 176.35841C129.27562 176.35841 142.57892 176.35841 142.57892 176.35841C142.57892 176.35841 142.57892 155.41931 142.57892 155.41931C142.57892 155.41931 142.57892 155.41931 142.57892 155.41931" /></svg>