<?xml version="1.0" encoding="UTF-8" standalone="no"?>
<!-- Generator: Adobe Illustrator 19.0.0, SVG Export Plug-In . SVG Version: 6.00 Build 0)  -->

<svg
   xmlns:dc="http://purl.org/dc/elements/1.1/"
   xmlns:cc="http://creativecommons.org/ns#"
   xmlns:rdf="http://www.w3.org/1999/02/22-rdf-syntax-ns#"
   xmlns:svg="http://www.w3.org/2000/svg"
   xmlns="http://www.w3.org/2000/svg"
   xmlns:sodipodi="http://sodipodi.sourceforge.net/DTD/sodipodi-0.dtd"
   xmlns:inkscape="http://www.inkscape.org/namespaces/inkscape"
   version="1.1"
   id="Capa_1"
   x="0px"
   y="0px"
   viewBox="0 0 200 200"
   xml:space="preserve"
   inkscape:version="0.91 r13725"
   sodipodi:docname="server.svg"
   width="200"
   height="200"><sodipodi:namedview
     pagecolor="#ffffff"
     bordercolor="#666666"
     borderopacity="1"
     objecttolerance="10"
     gridtolerance="10"
     guidetolerance="10"
     inkscape:pageopacity="0"
     inkscape:pageshadow="2"
     inkscape:window-width="1423"
     inkscape:window-height="792"
     id="namedview4196"
     showgrid="false"
     inkscape:showpageshadow="false"
     inkscape:zoom="1.5451593"
     inkscape:cx="29.863968"
     inkscape:cy="99.216366"
     inkscape:window-x="0"
     inkscape:window-y="0"
     inkscape:window-maximized="0"
     inkscape:current-layer="Capa_1" /><metadata
     id="metadata4200"><rdf:RDF><cc:Work
         rdf:about=""><dc:format>image/svg+xml</dc:format><dc:type
           rdf:resource="http://purl.org/dc/dcmitype/StillImage" /><dc:title></dc:title></cc:Work></rdf:RDF></metadata><defs
     id="defs4198" /><g
     id="g4152"><path
       id="path4154"
       d="M191.088888698 1.00000001169e-07C191.088888698 1.00000001169e-07 8.9111111022 1.00000001169e-07 8.9111111022 1.00000001169e-07C3.9962962923 1.00000001169e-07 0.0 4.4958334693 0.0 10.0250001802C0.0 10.0250001802 0.0 56.6416672198 0.0 56.6416672198C0.0 57.2208338911 0.0518518518 57.7833338956 0.1370370369 58.3333339C0.1370370369 58.3333339 199.862962763 58.3333339 199.862962763 58.3333339C199.948147948 57.7833338956 199.9999998 57.2208338911 199.9999998 56.6416672198C199.9999998 56.6416672198 199.9999998 10.0250001802 199.9999998 10.0250001802C199.9999998 4.4958334693 196.003703508 1.00000001169e-07 191.088888698 1.00000001169e-07C191.088888698 1.00000001169e-07 191.088888698 1.00000001169e-07 191.088888698 1.00000001169e-07M33.3333333 50.0000005C25.1629629378 50.0000005 18.5185185 42.5250004402 18.5185185 33.3333337C18.5185185 24.1416669598 25.1629629378 16.6666669 33.3333333 16.6666669C41.5037036622 16.6666669 48.1481481 24.1416669598 48.1481481 33.3333337C48.1481481 42.5250004402 41.5037036622 50.0000005 33.3333333 50.0000005C33.3333333 50.0000005 33.3333333 50.0000005 33.3333333 50.0000005M114.8148147 45.8333338C112.770370258 45.8333338 111.111111 43.9666671184 111.111111 41.6666671C111.111111 39.3666670816 112.770370258 37.5000004 114.8148147 37.5000004C116.859259142 37.5000004 118.5185184 39.3666670816 118.5185184 41.6666671C118.5185184 43.9666671184 116.859259142 45.8333338 114.8148147 45.8333338C114.8148147 45.8333338 114.8148147 45.8333338 114.8148147 45.8333338M122.2222221 29.166667C120.177777658 29.166667 118.5185184 27.3000003184 118.5185184 25.0000003C118.5185184 22.7000002816 120.177777658 20.8333336 122.2222221 20.8333336C124.266666542 20.8333336 125.9259258 22.7000002816 125.9259258 25.0000003C125.9259258 27.3000003184 124.266666542 29.166667 122.2222221 29.166667C122.2222221 29.166667 122.2222221 29.166667 122.2222221 29.166667M129.6296295 45.8333338C127.585185058 45.8333338 125.9259258 43.9666671184 125.9259258 41.6666671C125.9259258 39.3666670816 127.585185058 37.5000004 129.6296295 37.5000004C131.674073942 37.5000004 133.3333332 39.3666670816 133.3333332 41.6666671C133.3333332 43.9666671184 131.674073942 45.8333338 129.6296295 45.8333338C129.6296295 45.8333338 129.6296295 45.8333338 129.6296295 45.8333338M137.0370369 29.166667C134.992592458 29.166667 133.3333332 27.3000003184 133.3333332 25.0000003C133.3333332 22.7000002816 134.992592458 20.8333336 137.0370369 20.8333336C139.081481342 20.8333336 140.7407406 22.7000002816 140.7407406 25.0000003C140.7407406 27.3000003184 139.081481342 29.166667 137.0370369 29.166667C137.0370369 29.166667 137.0370369 29.166667 137.0370369 29.166667M144.4444443 45.8333338C142.399999858 45.8333338 140.7407406 43.9666671184 140.7407406 41.6666671C140.7407406 39.3666670816 142.399999858 37.5000004 144.4444443 37.5000004C146.488888742 37.5000004 148.148148 39.3666670816 148.148148 41.6666671C148.148148 43.9666671184 146.488888742 45.8333338 144.4444443 45.8333338C144.4444443 45.8333338 144.4444443 45.8333338 144.4444443 45.8333338M151.8518517 29.166667C149.807407258 29.166667 148.148148 27.3000003184 148.148148 25.0000003C148.148148 22.7000002816 149.807407258 20.8333336 151.8518517 20.8333336C153.896296142 20.8333336 155.5555554 22.7000002816 155.5555554 25.0000003C155.5555554 27.3000003184 153.896296142 29.166667 151.8518517 29.166667C151.8518517 29.166667 151.8518517 29.166667 151.8518517 29.166667M159.2592591 45.8333338C157.214814658 45.8333338 155.5555554 43.9666671184 155.5555554 41.6666671C155.5555554 39.3666670816 157.214814658 37.5000004 159.2592591 37.5000004C161.303703542 37.5000004 162.9629628 39.3666670816 162.9629628 41.6666671C162.9629628 43.9666671184 161.303703542 45.8333338 159.2592591 45.8333338C159.2592591 45.8333338 159.2592591 45.8333338 159.2592591 45.8333338M166.6666665 29.166667C164.622222058 29.166667 162.9629628 27.3000003184 162.9629628 25.0000003C162.9629628 22.7000002816 164.622222058 20.8333336 166.6666665 20.8333336C168.711110942 20.8333336 170.3703702 22.7000002816 170.3703702 25.0000003C170.3703702 27.3000003184 168.711110942 29.166667 166.6666665 29.166667C166.6666665 29.166667 166.6666665 29.166667 166.6666665 29.166667M174.0740739 45.8333338C172.029629458 45.8333338 170.3703702 43.9666671184 170.3703702 41.6666671C170.3703702 39.3666670816 172.029629458 37.5000004 174.0740739 37.5000004C176.118518342 37.5000004 177.7777776 39.3666670816 177.7777776 41.6666671C177.7777776 43.9666671184 176.118518342 45.8333338 174.0740739 45.8333338C174.0740739 45.8333338 174.0740739 45.8333338 174.0740739 45.8333338M181.4814813 29.166667C179.437036858 29.166667 177.7777776 27.3000003184 177.7777776 25.0000003C177.7777776 22.7000002816 179.437036858 20.8333336 181.4814813 20.8333336C183.525925742 20.8333336 185.185185 22.7000002816 185.185185 25.0000003C185.185185 27.3000003184 183.525925742 29.166667 181.4814813 29.166667C181.4814813 29.166667 181.4814813 29.166667 181.4814813 29.166667" /><path
       id="circle4156"
       d="M40.7407407 33.3333337C40.7407407 35.543471133 39.960319661 37.6630870908 38.5711613036 39.225890257C37.1820029461 40.7886934233 35.2978998894 41.6666671 33.3333333 41.6666671C31.3687667106 41.6666671 29.4846636539 40.7886934233 28.0955052964 39.225890257C26.706346939 37.6630870908 25.9259259 35.543471133 25.9259259 33.3333337C25.9259259 31.123196267 26.706346939 29.0035803092 28.0955052964 27.440777143C29.4846636539 25.8779739767 31.3687667106 25.0000003 33.3333333 25.0000003C35.2978998894 25.0000003 37.1820029461 25.8779739767 38.5711613036 27.440777143C39.960319661 29.0035803092 40.7407407 31.123196267 40.7407407 33.3333337C40.7407407 33.3333337 40.7407407 33.3333337 40.7407407 33.3333337"
       style="" /><path
       id="circle4158"
       d="M40.7407407 91.6666675C40.7407407 93.876804933 39.960319661 95.9964208908 38.5711613036 97.559224057C37.1820029461 99.1220272233 35.2978998894 100.0000009 33.3333333 100.0000009C31.3687667106 100.0000009 29.4846636539 99.1220272233 28.0955052964 97.559224057C26.706346939 95.9964208908 25.9259259 93.876804933 25.9259259 91.6666675C25.9259259 89.456530067 26.706346939 87.3369141092 28.0955052964 85.774110943C29.4846636539 84.2113077767 31.3687667106 83.3333341 33.3333333 83.3333341C35.2978998894 83.3333341 37.1820029461 84.2113077767 38.5711613036 85.774110943C39.960319661 87.3369141092 40.7407407 89.456530067 40.7407407 91.6666675C40.7407407 91.6666675 40.7407407 91.6666675 40.7407407 91.6666675"
       style="" /><path
       id="path4160"
       d="M0.1370370369 66.6666673C0.0518518518 67.2166673044 0.0 67.7791673089 0.0 68.3583339802C0.0 68.3583339802 0.0 114.97500102 0.0 114.97500102C0.0 115.554167691 0.0518518518 116.116667696 0.1370370369 116.6666677C0.1370370369 116.6666677 199.862962763 116.6666677 199.862962763 116.6666677C199.948147948 116.116667696 199.9999998 115.554167691 199.9999998 114.97500102C199.9999998 114.97500102 199.9999998 68.3583339802 199.9999998 68.3583339802C199.9999998 67.7791673089 199.948147948 67.2166673044 199.862962763 66.6666673C199.862962763 66.6666673 0.1370370369 66.6666673 0.1370370369 66.6666673C0.1370370369 66.6666673 0.1370370369 66.6666673 0.1370370369 66.6666673M33.3333333 108.3333343C25.1629629378 108.3333343 18.5185185 100.85833424 18.5185185 91.6666675C18.5185185 82.4750007598 25.1629629378 75.0000007 33.3333333 75.0000007C41.5037036622 75.0000007 48.1481481 82.4750007598 48.1481481 91.6666675C48.1481481 100.85833424 41.5037036622 108.3333343 33.3333333 108.3333343C33.3333333 108.3333343 33.3333333 108.3333343 33.3333333 108.3333343M114.8148147 104.1666676C112.770370258 104.1666676 111.111111 102.300000918 111.111111 100.0000009C111.111111 97.7000008816 112.770370258 95.8333342 114.8148147 95.8333342C116.859259142 95.8333342 118.5185184 97.7000008816 118.5185184 100.0000009C118.5185184 102.300000918 116.859259142 104.1666676 114.8148147 104.1666676C114.8148147 104.1666676 114.8148147 104.1666676 114.8148147 104.1666676M122.2222221 87.5000008C120.177777658 87.5000008 118.5185184 85.6333341184 118.5185184 83.3333341C118.5185184 81.0333340816 120.177777658 79.1666674 122.2222221 79.1666674C124.266666542 79.1666674 125.9259258 81.0333340816 125.9259258 83.3333341C125.9259258 85.6333341184 124.266666542 87.5000008 122.2222221 87.5000008C122.2222221 87.5000008 122.2222221 87.5000008 122.2222221 87.5000008M129.6296295 104.1666676C127.585185058 104.1666676 125.9259258 102.300000918 125.9259258 100.0000009C125.9259258 97.7000008816 127.585185058 95.8333342 129.6296295 95.8333342C131.674073942 95.8333342 133.3333332 97.7000008816 133.3333332 100.0000009C133.3333332 102.300000918 131.674073942 104.1666676 129.6296295 104.1666676C129.6296295 104.1666676 129.6296295 104.1666676 129.6296295 104.1666676M137.0370369 87.5000008C134.992592458 87.5000008 133.3333332 85.6333341184 133.3333332 83.3333341C133.3333332 81.0333340816 134.992592458 79.1666674 137.0370369 79.1666674C139.081481342 79.1666674 140.7407406 81.0333340816 140.7407406 83.3333341C140.7407406 85.6333341184 139.081481342 87.5000008 137.0370369 87.5000008C137.0370369 87.5000008 137.0370369 87.5000008 137.0370369 87.5000008M144.4444443 104.1666676C142.399999858 104.1666676 140.7407406 102.300000918 140.7407406 100.0000009C140.7407406 97.7000008816 142.399999858 95.8333342 144.4444443 95.8333342C146.488888742 95.8333342 148.148148 97.7000008816 148.148148 100.0000009C148.148148 102.300000918 146.488888742 104.1666676 144.4444443 104.1666676C144.4444443 104.1666676 144.4444443 104.1666676 144.4444443 104.1666676M151.8518517 87.5000008C149.807407258 87.5000008 148.148148 85.6333341184 148.148148 83.3333341C148.148148 81.0333340816 149.807407258 79.1666674 151.8518517 79.1666674C153.896296142 79.1666674 155.5555554 81.0333340816 155.5555554 83.3333341C155.5555554 85.6333341184 153.896296142 87.5000008 151.8518517 87.5000008C151.8518517 87.5000008 151.8518517 87.5000008 151.8518517 87.5000008M159.2592591 104.1666676C157.214814658 104.1666676 155.5555554 102.300000918 155.5555554 100.0000009C155.5555554 97.7000008816 157.214814658 95.8333342 159.2592591 95.8333342C161.303703542 95.8333342 162.9629628 97.7000008816 162.9629628 100.0000009C162.9629628 102.300000918 161.303703542 104.1666676 159.2592591 104.1666676C159.2592591 104.1666676 159.2592591 104.1666676 159.2592591 104.1666676M166.6666665 87.5000008C164.622222058 87.5000008 162.9629628 85.6333341184 162.9629628 83.3333341C162.9629628 81.0333340816 164.622222058 79.1666674 166.6666665 79.1666674C168.711110942 79.1666674 170.3703702 81.0333340816 170.3703702 83.3333341C170.3703702 85.6333341184 168.711110942 87.5000008 166.6666665 87.5000008C166.6666665 87.5000008 166.6666665 87.5000008 166.6666665 87.5000008M174.0740739 104.1666676C172.029629458 104.1666676 170.3703702 102.300000918 170.3703702 100.0000009C170.3703702 97.7000008816 172.029629458 95.8333342 174.0740739 95.8333342C176.118518342 95.8333342 177.7777776 97.7000008816 177.7777776 100.0000009C177.7777776 102.300000918 176.118518342 104.1666676 174.0740739 104.1666676C174.0740739 104.1666676 174.0740739 104.1666676 174.0740739 104.1666676M181.4814813 87.5000008C179.437036858 87.5000008 177.7777776 85.6333341184 177.7777776 83.3333341C177.7777776 81.0333340816 179.437036858 79.1666674 181.4814813 79.1666674C183.525925742 79.1666674 185.185185 81.0333340816 185.185185 83.3333341C185.185185 85.6333341184 183.525925742 87.5000008 181.4814813 87.5000008C181.4814813 87.5000008 181.4814813 87.5000008 181.4814813 87.5000008" /><path
       id="circle4162"
       d="M40.7407407 150.0000013C40.7407407 152.210138733 39.960319661 154.329754691 38.5711613036 155.892557857C37.1820029461 157.455361023 35.2978998894 158.3333347 33.3333333 158.3333347C31.3687667106 158.3333347 29.4846636539 157.455361023 28.0955052964 155.892557857C26.706346939 154.329754691 25.9259259 152.210138733 25.9259259 150.0000013C25.9259259 147.789863867 26.706346939 145.670247909 28.0955052964 144.107444743C29.4846636539 142.544641577 31.3687667106 141.6666679 33.3333333 141.6666679C35.2978998894 141.6666679 37.1820029461 142.544641577 38.5711613036 144.107444743C39.960319661 145.670247909 40.7407407 147.789863867 40.7407407 150.0000013C40.7407407 150.0000013 40.7407407 150.0000013 40.7407407 150.0000013"
       style="" /><path
       id="path4164"
       d="M0.1370370369 125.0000011C0.0518518518 125.550001104 0.0 126.112501109 0.0 126.69166778C0.0 126.69166778 0.0 173.30833482 0.0 173.30833482C0.0 178.837501531 3.9962962923 183.3333349 8.9111111022 183.3333349C8.9111111022 183.3333349 11.1111111 183.3333349 11.1111111 183.3333349C11.1111111 192.52500164 17.7555555378 200.0000017 25.9259259 200.0000017C34.0962962622 200.0000017 40.7407407 192.52500164 40.7407407 183.3333349C40.7407407 183.3333349 159.2592591 183.3333349 159.2592591 183.3333349C159.2592591 192.52500164 165.903703538 200.0000017 174.0740739 200.0000017C182.244444262 200.0000017 188.8888887 192.52500164 188.8888887 183.3333349C188.8888887 183.3333349 191.088888698 183.3333349 191.088888698 183.3333349C196.003703508 183.3333349 199.9999998 178.837501531 199.9999998 173.30833482C199.9999998 173.30833482 199.9999998 126.69166778 199.9999998 126.69166778C199.9999998 126.112501109 199.948147948 125.550001104 199.862962763 125.0000011C199.862962763 125.0000011 0.1370370369 125.0000011 0.1370370369 125.0000011C0.1370370369 125.0000011 0.1370370369 125.0000011 0.1370370369 125.0000011M181.4814813 137.5000012C183.525925742 137.5000012 185.185185 139.366667882 185.185185 141.6666679C185.185185 143.966667918 183.525925742 145.8333346 181.4814813 145.8333346C179.437036858 145.8333346 177.7777776 143.966667918 177.7777776 141.6666679C177.7777776 139.366667882 179.437036858 137.5000012 181.4814813 137.5000012C181.4814813 137.5000012 181.4814813 137.5000012 181.4814813 137.5000012M174.0740739 154.166668C176.118518342 154.166668 177.7777776 156.033334682 177.7777776 158.3333347C177.7777776 160.633334718 176.118518342 162.5000014 174.0740739 162.5000014C172.029629458 162.5000014 170.3703702 160.633334718 170.3703702 158.3333347C170.3703702 156.033334682 172.029629458 154.166668 174.0740739 154.166668C174.0740739 154.166668 174.0740739 154.166668 174.0740739 154.166668M166.6666665 137.5000012C168.711110942 137.5000012 170.3703702 139.366667882 170.3703702 141.6666679C170.3703702 143.966667918 168.711110942 145.8333346 166.6666665 145.8333346C164.622222058 145.8333346 162.9629628 143.966667918 162.9629628 141.6666679C162.9629628 139.366667882 164.622222058 137.5000012 166.6666665 137.5000012C166.6666665 137.5000012 166.6666665 137.5000012 166.6666665 137.5000012M25.9259259 191.6666683C21.8407407189 191.6666683 18.5185185 187.92916827 18.5185185 183.3333349C18.5185185 183.3333349 33.3333333 183.3333349 33.3333333 183.3333349C33.3333333 187.92916827 30.0111110811 191.6666683 25.9259259 191.6666683C25.9259259 191.6666683 25.9259259 191.6666683 25.9259259 191.6666683M33.3333333 166.6666681C25.1629629378 166.6666681 18.5185185 159.19166804 18.5185185 150.0000013C18.5185185 140.80833456 25.1629629378 133.3333345 33.3333333 133.3333345C41.5037036622 133.3333345 48.1481481 140.80833456 48.1481481 150.0000013C48.1481481 159.19166804 41.5037036622 166.6666681 33.3333333 166.6666681C33.3333333 166.6666681 33.3333333 166.6666681 33.3333333 166.6666681M114.8148147 162.5000014C112.770370258 162.5000014 111.111111 160.633334718 111.111111 158.3333347C111.111111 156.033334682 112.770370258 154.166668 114.8148147 154.166668C116.859259142 154.166668 118.5185184 156.033334682 118.5185184 158.3333347C118.5185184 160.633334718 116.859259142 162.5000014 114.8148147 162.5000014C114.8148147 162.5000014 114.8148147 162.5000014 114.8148147 162.5000014M122.2222221 145.8333346C120.177777658 145.8333346 118.5185184 143.966667918 118.5185184 141.6666679C118.5185184 139.366667882 120.177777658 137.5000012 122.2222221 137.5000012C124.266666542 137.5000012 125.9259258 139.366667882 125.9259258 141.6666679C125.9259258 143.966667918 124.266666542 145.8333346 122.2222221 145.8333346C122.2222221 145.8333346 122.2222221 145.8333346 122.2222221 145.8333346M129.6296295 162.5000014C127.585185058 162.5000014 125.9259258 160.633334718 125.9259258 158.3333347C125.9259258 156.033334682 127.585185058 154.166668 129.6296295 154.166668C131.674073942 154.166668 133.3333332 156.033334682 133.3333332 158.3333347C133.3333332 160.633334718 131.674073942 162.5000014 129.6296295 162.5000014C129.6296295 162.5000014 129.6296295 162.5000014 129.6296295 162.5000014M137.0370369 145.8333346C134.992592458 145.8333346 133.3333332 143.966667918 133.3333332 141.6666679C133.3333332 139.366667882 134.992592458 137.5000012 137.0370369 137.5000012C139.081481342 137.5000012 140.7407406 139.366667882 140.7407406 141.6666679C140.7407406 143.966667918 139.081481342 145.8333346 137.0370369 145.8333346C137.0370369 145.8333346 137.0370369 145.8333346 137.0370369 145.8333346M144.4444443 162.5000014C142.399999858 162.5000014 140.7407406 160.633334718 140.7407406 158.3333347C140.7407406 156.033334682 142.399999858 154.166668 144.4444443 154.166668C146.488888742 154.166668 148.148148 156.033334682 148.148148 158.3333347C148.148148 160.633334718 146.488888742 162.5000014 144.4444443 162.5000014C144.4444443 162.5000014 144.4444443 162.5000014 144.4444443 162.5000014M151.8518517 145.8333346C149.807407258 145.8333346 148.148148 143.966667918 148.148148 141.6666679C148.148148 139.366667882 149.807407258 137.5000012 151.8518517 137.5000012C153.896296142 137.5000012 155.5555554 139.366667882 155.5555554 141.6666679C155.5555554 143.966667918 153.896296142 145.8333346 151.8518517 145.8333346C151.8518517 145.8333346 151.8518517 145.8333346 151.8518517 145.8333346M155.5555554 158.3333347C155.5555554 156.033334682 157.214814658 154.166668 159.2592591 154.166668C161.303703542 154.166668 162.9629628 156.033334682 162.9629628 158.3333347C162.9629628 160.633334718 161.303703542 162.5000014 159.2592591 162.5000014C157.214814658 162.5000014 155.5555554 160.633334718 155.5555554 158.3333347C155.5555554 158.3333347 155.5555554 158.3333347 155.5555554 158.3333347M174.0740739 191.6666683C169.988888719 191.6666683 166.6666665 187.92916827 166.6666665 183.3333349C166.6666665 183.3333349 181.4814813 183.3333349 181.4814813 183.3333349C181.4814813 187.92916827 178.159259081 191.6666683 174.0740739 191.6666683C174.0740739 191.6666683 174.0740739 191.6666683 174.0740739 191.6666683" /></g></svg>